<svg width="32" height="32" viewBox="0 0 32 32" fill="none" xmlns="http://www.w3.org/2000/svg">
<path fill-rule="evenodd" clip-rule="evenodd" d="M14.0086 2.0108C14.2509 1.73201 14.6271 1.60948 14.9871 1.69213C19.7989 2.79682 22.2311 8.06964 21.6591 12.7871C21.4367 14.621 20.8874 16.0587 20.0786 17.2025C20.0736 17.2095 20.0687 17.2165 20.0637 17.2234C20.2474 17.1331 20.4169 17.0357 20.5755 16.9327C21.3648 16.4205 21.944 15.7445 22.6982 14.8642C22.7894 14.7578 22.8831 14.6485 22.9801 14.536C23.198 14.2834 23.5275 14.156 23.8587 14.1965C24.1898 14.2369 24.479 14.4399 24.6297 14.7376C25.293 16.0485 25.6663 17.5306 25.6663 19.0969C25.6663 24.4357 21.3384 28.7636 15.9997 28.7636C10.6609 28.7636 6.33301 24.4357 6.33301 19.0969C6.33301 15.7142 8.07128 12.7381 10.6988 11.0122L10.7888 10.9214C10.8351 10.8748 10.8859 10.8328 10.9404 10.7961C12.0949 10.0193 12.9238 9.38389 13.4819 8.63665C14.0092 7.93077 14.333 7.06968 14.333 5.7636C14.333 4.79656 14.1544 3.87357 13.8294 3.02419C13.6974 2.67923 13.7663 2.28958 14.0086 2.0108ZM16.228 4.33449C16.2972 4.80113 16.333 5.27837 16.333 5.7636C16.333 7.45482 15.8961 8.74668 15.0843 9.83348C14.322 10.8541 13.2667 11.638 12.1392 12.3999L12.0428 12.4971C11.9912 12.5491 11.934 12.5953 11.8722 12.6349C9.74164 13.9989 8.33301 16.3837 8.33301 19.0969C8.33301 23.3311 11.7655 26.7636 15.9997 26.7636C20.2339 26.7636 23.6663 23.3311 23.6663 19.0969C23.6663 18.4038 23.5746 17.7331 23.4028 17.0956C22.8958 17.6446 22.3363 18.1743 21.6644 18.6104C20.4334 19.4093 18.8929 19.8654 16.6663 19.8654C16.21 19.8654 15.8115 19.5565 15.6979 19.1145C15.5842 18.6726 15.7841 18.2097 16.1838 17.9895C17.0889 17.4909 17.8561 16.8814 18.4456 16.0477C19.0339 15.2158 19.4846 14.1051 19.6736 12.5464C20.0827 9.17209 18.6863 5.8415 16.228 4.33449Z" fill="black"/>
</svg>
