<svg width="95" height="29" viewBox="0 0 95 29" fill="none" xmlns="http://www.w3.org/2000/svg">
<path d="M1.29697 5.724H12.817L0.180969 27H18.829V23.184H7.05697L19.765 1.8H1.29697V5.724ZM25.172 20.52H38.492L37.664 16.92H25.964L25.172 20.52ZM31.76 8.928L35.756 18.288L35.864 19.332L39.284 27H44.072L31.76 0.395999L19.448 27H24.236L27.728 19.116L27.8 18.18L31.76 8.928ZM64.3195 1.8V18.72L45.9235 0.539999V27H50.0995V10.08L68.4955 28.26V1.8H64.3195ZM73.0036 1.8V27H77.3236V1.8H73.0036ZM81.1396 27C83.7076 27 85.9636 26.484 87.9076 25.452C89.8516 24.396 91.3636 22.932 92.4436 21.06C93.5476 19.164 94.0996 16.944 94.0996 14.4C94.0996 11.856 93.5476 9.648 92.4436 7.776C91.3636 5.88 89.8516 4.416 87.9076 3.384C85.9636 2.328 83.7076 1.8 81.1396 1.8H75.6316V5.796H81.0316C82.2796 5.796 83.4316 5.976 84.4876 6.336C85.5436 6.696 86.4556 7.236 87.2236 7.956C88.0156 8.676 88.6276 9.576 89.0596 10.656C89.5156 11.736 89.7436 12.984 89.7436 14.4C89.7436 15.816 89.5156 17.064 89.0596 18.144C88.6276 19.224 88.0156 20.124 87.2236 20.844C86.4556 21.564 85.5436 22.104 84.4876 22.464C83.4316 22.824 82.2796 23.004 81.0316 23.004H75.6316V27H81.1396Z" fill="url(#paint0_linear_247_29205)"/>
<defs>
<linearGradient id="paint0_linear_247_29205" x1="101.602" y1="47.5362" x2="6.04002" y2="-30.965" gradientUnits="userSpaceOnUse">
<stop stop-color="#505050"/>
<stop offset="0.938943" stop-color="#ED6169"/>
</linearGradient>
</defs>
</svg>
