<svg width="28" height="25" viewBox="0 0 28 25" fill="none" xmlns="http://www.w3.org/2000/svg">
<path fill-rule="evenodd" clip-rule="evenodd" d="M0 8.24103C0 3.585 3.79063 0 8.24 0C10.5336 0 12.5517 1.15886 14 2.65833C15.4483 1.15886 17.4664 0 19.76 0C24.2094 0 28 3.585 28 8.24103C28 11.4305 26.7378 14.2352 24.9891 16.6061C23.2434 18.9729 20.9599 20.9815 18.7736 22.6137C17.9385 23.2372 17.0936 23.8123 16.3204 24.2366C15.5944 24.635 14.7596 25 14 25C13.2404 25 12.4056 24.635 11.6796 24.2366C10.9064 23.8123 10.0615 23.2372 9.22645 22.6137C7.04008 20.9815 4.7566 18.9729 3.01091 16.6061C1.26221 14.2352 0 11.4305 0 8.24103ZM8.24 2.58621C4.9132 2.58621 2.4 5.22259 2.4 8.24103C2.4 10.6608 3.35326 12.9138 4.88975 14.9969C6.42925 17.0842 8.50068 18.9257 10.5932 20.4879C11.385 21.079 12.1308 21.5819 12.7687 21.932C13.4538 22.308 13.8507 22.4138 14 22.4138C14.1493 22.4138 14.5462 22.308 15.2313 21.932C15.8692 21.5819 16.615 21.079 17.4068 20.4879C19.4993 18.9257 21.5707 17.0842 23.1103 14.9969C24.6467 12.9138 25.6 10.6608 25.6 8.24103C25.6 5.22259 23.0868 2.58621 19.76 2.58621C17.8494 2.58621 16.0653 3.81625 14.9513 5.37745C14.7242 5.69579 14.3727 5.88235 14 5.88235C13.6273 5.88235 13.2758 5.69579 13.0487 5.37745C11.9347 3.81625 10.1506 2.58621 8.24 2.58621Z" fill="black"/>
</svg>
