<svg width="31" height="31" viewBox="0 0 31 31" fill="none" xmlns="http://www.w3.org/2000/svg">
<path d="M23.432 27.926C22.2953 28.2618 20.952 28.4168 19.3761 28.4168H11.6261C10.0503 28.4168 8.70698 28.2618 7.57031 27.926C7.85448 24.5676 11.3032 21.9197 15.5011 21.9197C19.6991 21.9197 23.1478 24.5676 23.432 27.926Z" stroke="black" stroke-width="2.2" stroke-linecap="round" stroke-linejoin="round"/>
<path d="M19.3747 2.58325H11.6247C5.16634 2.58325 2.58301 5.16658 2.58301 11.6249V19.3749C2.58301 24.2574 4.05551 26.9312 7.56884 27.9257C7.85301 24.5674 11.3018 21.9195 15.4997 21.9195C19.6976 21.9195 23.1463 24.5674 23.4305 27.9257C26.9438 26.9312 28.4163 24.2574 28.4163 19.3749V11.6249C28.4163 5.16658 25.833 2.58325 19.3747 2.58325ZM15.4997 18.3028C12.9422 18.3028 10.8755 16.2233 10.8755 13.6658C10.8755 11.1083 12.9422 9.04158 15.4997 9.04158C18.0572 9.04158 20.1238 11.1083 20.1238 13.6658C20.1238 16.2233 18.0572 18.3028 15.4997 18.3028Z" stroke="black" stroke-width="2.2" stroke-linecap="round" stroke-linejoin="round"/>
<path d="M20.1243 13.6659C20.1243 16.2234 18.0576 18.303 15.5001 18.303C12.9426 18.303 10.876 16.2234 10.876 13.6659C10.876 11.1084 12.9426 9.04175 15.5001 9.04175C18.0576 9.04175 20.1243 11.1084 20.1243 13.6659Z" stroke="black" stroke-width="2.2" stroke-linecap="round" stroke-linejoin="round"/>
</svg>
