<svg width="106" height="52" viewBox="0 0 106 52" fill="none" xmlns="http://www.w3.org/2000/svg">
<mask id="mask0_383_25348" style="mask-type:alpha" maskUnits="userSpaceOnUse" x="10" y="12" width="95" height="29">
<path d="M11.297 17.724H22.817L10.181 39H28.829V35.184H17.057L29.765 13.8H11.297V17.724ZM35.172 32.52H48.492L47.664 28.92H35.964L35.172 32.52ZM41.76 20.928L45.756 30.288L45.864 31.332L49.284 39H54.072L41.76 12.396L29.448 39H34.236L37.728 31.116L37.8 30.18L41.76 20.928ZM74.3195 13.8V30.72L55.9235 12.54V39H60.0995V22.08L78.4955 40.26V13.8H74.3195ZM83.0036 13.8V39H87.3236V13.8H83.0036ZM91.1396 39C93.7076 39 95.9636 38.484 97.9076 37.452C99.8516 36.396 101.364 34.932 102.444 33.06C103.548 31.164 104.1 28.944 104.1 26.4C104.1 23.856 103.548 21.648 102.444 19.776C101.364 17.88 99.8516 16.416 97.9076 15.384C95.9636 14.328 93.7076 13.8 91.1396 13.8H85.6316V17.796H91.0316C92.2796 17.796 93.4316 17.976 94.4876 18.336C95.5436 18.696 96.4556 19.236 97.2236 19.956C98.0156 20.676 98.6276 21.576 99.0596 22.656C99.5156 23.736 99.7436 24.984 99.7436 26.4C99.7436 27.816 99.5156 29.064 99.0596 30.144C98.6276 31.224 98.0156 32.124 97.2236 32.844C96.4556 33.564 95.5436 34.104 94.4876 34.464C93.4316 34.824 92.2796 35.004 91.0316 35.004H85.6316V39H91.1396Z" fill="url(#paint0_linear_383_25348)"/>
</mask>
<g mask="url(#mask0_383_25348)">
<rect x="10" y="12" width="94" height="29" fill="url(#paint1_linear_383_25348)"/>
</g>
<defs>
<linearGradient id="paint0_linear_383_25348" x1="111.602" y1="59.5362" x2="16.04" y2="-18.965" gradientUnits="userSpaceOnUse">
<stop stop-color="#505050"/>
<stop offset="0.938943" stop-color="#ED6169"/>
</linearGradient>
<linearGradient id="paint1_linear_383_25348" x1="22" y1="9" x2="110" y2="46" gradientUnits="userSpaceOnUse">
<stop stop-color="#E06067"/>
<stop offset="1" stop-color="#715455"/>
</linearGradient>
</defs>
</svg>
